<?xml version="1.0" encoding="utf-8"?>
<!-- Generator: Adobe Illustrator 27.2.0, SVG Export Plug-In . SVG Version: 6.00 Build 0)  -->
<svg version="1.1" xmlns="http://www.w3.org/2000/svg" xmlns:xlink="http://www.w3.org/1999/xlink" x="0px" y="0px" width="600px"
	 height="150px" viewBox="0 0 600 150" style="enable-background:new 0 0 600 150;" xml:space="preserve">
<style type="text/css">
	.st0{fill:#FF729F;}
	.st1{fill:#FDD835;}
	.st2{fill:#212121;}
</style>
<g id="レイヤー_2">
	<path class="st0" d="M587.362,148.878H37.156c-6.415,0-11.615-5.2-11.615-11.615v-8.18c0-6.415,5.2-11.615,11.615-11.615h550.205
		c6.415,0,11.615,5.2,11.615,11.615v8.18C598.977,143.678,593.776,148.878,587.362,148.878z"/>
	<path class="st1" d="M583.699,143.48H33.494c-6.415,0-11.615-5.2-11.615-11.615v-8.18c0-6.415,5.2-11.615,11.615-11.615h550.205
		c6.415,0,11.615,5.2,11.615,11.615v8.18C595.314,138.28,590.114,143.48,583.699,143.48z"/>
	<path class="st0" d="M188.846,45.026L12.785,74.84c-5.463,0.925-10.642-2.754-11.567-8.217l0,0
		C0.293,61.16,3.972,55.981,9.435,55.056l176.061-29.814c5.463-0.925,10.642,2.754,11.567,8.217v0
		C197.988,38.922,194.309,44.101,188.846,45.026z"/>
	<path class="st1" d="M185.553,37.485L11.736,78.402c-5.394,1.27-10.795-2.073-12.065-7.467l0,0
		c-1.27-5.394,2.073-10.795,7.467-12.065l173.816-40.917c5.394-1.27,10.795,2.073,12.065,7.467v0
		C194.29,30.814,190.946,36.216,185.553,37.485z"/>
</g>
<g id="レイヤー_1">
	<g>
		<path class="st2" d="M35.387,12.31l8.285,3.356l0.302,0.603c-6.399,10.286-11.893,17.549-17.166,23.198
			c7.713-4.93,14.603-8.847,23.85-13.66l0.57,0.128l3.697,7.296l-0.197,0.523c-7.041,2.86-13.988,6.488-17.403,9.952
			c-2.556,2.627-3.183,4.928-2.764,7.019c0.815,4.066,6.508,4.436,16.326,2.168l0.442,0.394l0.688,8.564l-0.325,0.488
			c-15.406,3.026-23.726-0.202-25.193-7.522c-0.721-3.601-0.327-5.856,1.333-8.726c-3.926,2.72-5.797,4.242-8.143,6.103
			c-1.778,1.383-3.346,2-4.566,2.244c-3.253,0.652-5.531-2.578-6.334-5.076c2.776-2.127,5.971-5.486,9.606-10.263
			c5.156-6.834,11.812-16.747,16.421-26.613L35.387,12.31z M9.084,23.683l4.948-6.067l0.639-0.128
			c3.277,1.58,6.787,3.717,9.948,6.225l0.07,0.651L19.613,31l-0.627,0.185c-3.475-2.869-6.381-5.005-9.844-6.91L9.084,23.683z"/>
		<path class="st2" d="M72.488,27.819c2.823-4.146,5.042-6.015,7.887-6.585c2.775-0.556,5.62,0.153,6.507,4.578
			c0.478,2.389,0.641,4.475,0.824,6.302c0.176,1.609,0.444,3.674,0.612,4.517c0.19,0.948,0.359,1.243,1.061,1.103
			c0.632-0.127,2.381-1.427,3.729-4.181l2.383,4.418c0.337,0.59,0.246,0.864-0.126,1.377c-1.713,2.389-3.708,3.739-6.097,4.217
			c-2.704,0.542-5.143-0.322-5.987-4.537c-0.324-1.616-0.563-3.723-0.795-5.796c-0.177-1.608-0.374-3.505-0.676-5.016
			c-0.338-1.686-0.668-2.058-1.651-1.861c-1.089,0.218-2.199,1.244-3.231,2.473c-1.026,1.265-2.212,3.001-3.462,4.786
			c0.668,3.702,1.52,7.587,2.737,12.567c0.31,1.546-0.498,2.986-2.254,3.338c-1.405,0.281-2.346-0.59-3.007-1.699
			c-0.541-0.878-1.75-2.353-3.605-3.772c-0.379,0.843-0.744,1.757-1.194,2.796l-0.386,0.077l-3.563-3.195l-0.077-0.386
			c2.029-4.279,3.897-7.722,5.933-11.601c-0.12-0.78-0.274-1.553-0.429-2.326c-1.334,0.815-2.732,1.863-4.249,3.226l-0.408-0.028
			l-2.706-3.477l0.028-0.408c2.233-1.799,4.558-3.325,6.49-4.442c-0.261-1.665-0.535-3.4-0.795-5.247l0.204-0.26l4.608-0.886
			l0.302,0.232c0.218,1.637,0.43,3.238,0.648,4.693c0.569,0.288,1.18,0.786,1.321,1.489c0.127,0.632-0.007,1.244-0.68,2.804
			L72.488,27.819z M69.823,43.149c0.45,0.056,0.597-0.12,0.457-0.822c-0.211-1.054-0.486-2.424-0.697-3.477
			c-0.527,1.201-1.172,2.719-1.699,3.92C68.615,42.953,69.339,43.1,69.823,43.149z"/>
		<path class="st2" d="M99.864,29.861c7.719-5.602,11.365-7.647,14.737-8.323c5.374-1.077,9.344,1.599,10.322,6.482
			c0.753,3.758-0.63,7.067-3.763,9.303c-1.215,0.864-4.123,2.397-7.516,3.515c-0.239,0.085-0.415,0.12-0.555,0.148
			c-0.456,0.091-0.625-0.021-0.948-0.358l-3.057-3.406c4.341-1.125,6.168-1.856,8.099-3.157c2.254-1.511,2.935-3.219,2.464-5.572
			c-0.422-2.107-2.01-2.922-4.363-2.45c-2.81,0.563-5.584,2.214-12.355,7.626l-0.358,0.035l-2.706-3.477L99.864,29.861z"/>
		<path class="st2" d="M133.031,17.957l-2.088-4.404l0.084-0.309c9.321-4.352,16.83-7.536,26.376-11.312l0.352,0.112l1.954,4.468
			l-0.183,0.365c-3.842,1.062-7.109,2.447-8.899,4.632c-2.739,3.289-3.925,6.851-3.264,10.153c0.542,2.704,2.158,3.842,4.357,4.059
			c2.051,0.21,4.904-0.142,8.549-0.909l0.295,0.197l0.789,5.395l-0.239,0.267c-4.376,0.95-8.296,1.26-11.423,0.608
			c-3.773-0.779-6.542-3.293-7.499-8.07c-0.865-4.32,0.813-8.529,2.722-10.848c-3.273,1.533-6.834,3.269-11.54,5.673L133.031,17.957
			z"/>
	</g>
	<g>
		<path class="st2" d="M77.308,130.486H66.212l0.394-24.317V95.701c-1.181,2.991-2.44,5.587-3.856,7.633
			c-0.315,0.472-0.708,0.708-1.024,0.708c-0.393,0-0.708-0.315-0.865-0.865L57.319,92.16c6.138-10.388,10.388-22.507,12.985-36.279
			l0.708-0.394l9.916,2.44l0.393,0.708c-1.338,5.194-2.675,9.679-4.014,13.693V130.486z M93.283,70.597l-11.726,0.236l-0.551-0.551
			v-9.128l0.551-0.551l11.726,0.236h26.048l12.434-0.236l0.551,0.551v9.128l-0.551,0.551l-6.532-0.157v29.668l0.315,17.156
			c0,9.286-3.384,11.882-16.054,11.882c-1.574,0-1.731-0.157-2.046-0.943l-4.407-10.152c3.698,0,7.319-0.158,8.656-0.315
			c1.652-0.158,2.124-0.63,2.124-2.518V70.597H93.283z M92.417,104.909v5.193h-9.994l0.393-14.716v-9.758l-0.236-8.184l0.472-0.552
			l8.499,0.236h8.184l8.421-0.236l0.551,0.552l-0.236,8.184v8.578l0.394,14.48H98.477v-3.777H92.417z M98.477,96.095V85.786h-6.06
			v10.309H98.477z"/>
		<path class="st2" d="M150.466,97.235c2.914,1.481,5.59,3.009,8.121,4.681c2.245-4.06,4.204-8.503,5.876-13.424l0.382-0.143
			l7.07,2.675l0.143,0.382c-2.006,5.351-4.395,10.414-7.261,15.096c2.675,2.198,5.16,4.586,7.405,7.166l0.048,0.526l-5.255,5.302
			h-0.43c-2.006-2.341-4.06-4.49-6.258-6.544c-4.347,5.542-9.602,10.414-16.004,14.236c-0.239,0.143-0.478,0.239-0.669,0.239
			c-0.239,0-0.525-0.095-0.86-0.382l-5.494-4.061c6.879-3.631,12.564-8.551,17.198-14.762c-2.675-1.959-5.637-3.822-9.029-5.637
			v-0.43l4.491-4.825L150.466,97.235z"/>
		<path class="st2" d="M190.113,124.036l0.239-16.386V99.48l-0.143-5.78l0.382-0.335l7.023,0.143h15.574l6.831-0.143l0.382,0.335
			l-0.143,6.21v13.472l0.143,6.545l-0.334,0.382l-7.262-0.143H197.9v3.869H190.113z M212.614,100.102H197.9v13.472h14.714V100.102z"
			/>
		<path class="st2" d="M241.704,106.933l-7.214,0.143l-0.335-0.382v-6.067l0.382-0.334l7.118,0.143h22.549l6.736-0.143l0.382,0.334
			v6.067l-0.335,0.382l-6.784-0.143h-6.64c-0.335,6.449-2.962,12.756-7.692,17.246c-1.624,1.529-3.439,2.723-5.398,3.869
			c-0.382,0.191-0.573,0.287-0.812,0.287c-0.239,0-0.526-0.143-1.003-0.478l-6.067-3.774c7.548-2.866,12.517-8.456,13.138-17.15
			H241.704z M258.567,96.375h-12.421l-6.354,0.143l-0.334-0.382v-6.163l0.43-0.287l5.876,0.143h12.756l6.497-0.143l0.382,0.335
			v6.115l-0.334,0.382L258.567,96.375z M264.921,87.49l2.818-1.194l0.478,0.048c1.433,1.815,2.723,3.774,3.727,5.972l-0.143,0.43
			l-2.962,1.29l-0.478-0.096c-1.051-2.245-2.006-4.06-3.535-6.019L264.921,87.49z M269.938,85.483l2.771-1.242l0.478,0.048
			c1.433,1.815,2.58,3.631,3.583,5.828l-0.143,0.43l-2.771,1.29l-0.478-0.095c-1.051-2.245-2.006-3.87-3.535-5.876L269.938,85.483z"
			/>
		<path class="st2" d="M306.145,116.154l0.191,10.892h-7.118l0.191-10.653v-4.156c-2.484,1.767-5.112,3.392-8.504,5.303
			c-0.716,0.334-0.812,0.286-1.338-0.191l-4.538-3.917c9.268-4.348,15.908-9.268,22.309-16.529l0.478-0.048l5.112,3.631l0.048,0.43
			c-2.484,2.532-4.778,4.586-6.832,6.354V116.154z"/>
		<path class="st2" d="M359.264,111.71H337.91l-7.118,0.143l-0.334-0.382v-6.832l0.43-0.287l6.831,0.143h21.307l7.357-0.143
			l0.383,0.334v6.784l-0.335,0.382L359.264,111.71z"/>
		<path class="st2" d="M389.214,115.628c7.309-2.723,16.29-8.886,23.647-18.918l3.153,6.688c0.191,0.334,0.287,0.573,0.287,0.812
			c0,0.287-0.095,0.526-0.382,0.908c-7.023,8.742-16.243,15.144-28.951,20.065c-0.477,0.191-0.764,0.239-1.003,0.239
			c-0.287,0-0.478-0.143-0.812-0.43l-3.774-3.392l0.239-4.539V92.315L382,91.98h6.831l0.383,0.382V115.628z"/>
		<path class="st2" d="M454.802,111.71h-21.355l-7.118,0.143l-0.334-0.382v-6.832l0.43-0.287l6.831,0.143h21.307l7.357-0.143
			l0.383,0.334v6.784l-0.335,0.382L454.802,111.71z"/>
		<path class="st2" d="M474.719,97.857l4.634-5.207l0.478-0.096c2.866,1.433,6.687,3.965,9.697,6.593v0.478l-4.968,5.781
			l-0.43,0.048c-2.867-2.771-6.067-5.112-9.364-7.166L474.719,97.857z M511.743,101.822c0.143,0.382,0.191,0.669,0.191,0.908
			c0,0.334-0.144,0.525-0.478,0.86c-8.504,9.364-18.871,16.338-31.482,22.071l-0.477-0.096l-4.3-6.449l0.096-0.478
			c11.847-4.539,24.077-12.947,33.823-24.316L511.743,101.822z"/>
		<path class="st2" d="M516.844,75.78c5.067-13.225,15.257-17.52,28.063-15.041c13.37,2.588,20.37,10.461,18.032,22.542
			c-1.278,6.605-4.794,10.52-13.713,14.727c-6.257,2.967-8.899,4.963-10.425,8.093l-10.229-1.98
			c0.998-5.155,3.521-8.259,9.981-12.274c6.155-3.738,8.55-6.618,9.454-11.289c1.013-5.235-1.634-9.257-6.225-10.146
			c-6.041-1.169-9.733,2.795-12.245,10.164L516.844,75.78z M539.098,120.113c-0.826,4.269-5.041,7.046-9.229,6.236
			c-4.268-0.826-7.142-4.975-6.316-9.244c0.826-4.268,5.056-7.127,9.325-6.3C537.066,111.615,539.924,115.845,539.098,120.113z"/>
		<path class="st2" d="M558.308,96.399c7.036-5.25,13.798-4.125,19.686,1.417c6.148,5.785,7.207,12.229,1.979,17.784
			c-2.858,3.037-5.997,3.924-12.064,3.173c-4.261-0.518-6.307-0.348-8.143,0.787l-4.704-4.426c2.231-2.37,4.581-3.161,9.296-3.124
			c4.463,0.08,6.672-0.635,8.693-2.783c2.265-2.407,2.211-5.391,0.1-7.378c-2.778-2.614-6.025-1.76-9.783,1.268L558.308,96.399z
			 M555.281,127c-1.847,1.963-4.975,2.022-6.901,0.21c-1.963-1.847-2.094-4.973-0.247-6.936c1.847-1.963,5.01-2.059,6.973-0.212
			C557.031,121.874,557.128,125.037,555.281,127z"/>
	</g>
</g>
</svg>
